<?xml version="1.0" encoding="UTF-8" standalone="no"?>
<!-- Created with Inkscape (http://www.inkscape.org/) -->

<svg
   xmlns:dc="http://purl.org/dc/elements/1.1/"
   xmlns:cc="http://creativecommons.org/ns#"
   xmlns:rdf="http://www.w3.org/1999/02/22-rdf-syntax-ns#"
   xmlns:svg="http://www.w3.org/2000/svg"
   xmlns="http://www.w3.org/2000/svg"
   xmlns:sodipodi="http://sodipodi.sourceforge.net/DTD/sodipodi-0.dtd"
   xmlns:inkscape="http://www.inkscape.org/namespaces/inkscape"
   width="640"
   height="640"
   id="svg2"
   version="1.1"
   inkscape:version="0.48.4 r9939"
   sodipodi:docname="signals.svg"
   inkscape:export-filename="/home/gera/src/python/wefree/wefree/imgs/lock.png"
   inkscape:export-xdpi="9"
   inkscape:export-ydpi="9">
  <defs
     id="defs4" />
  <sodipodi:namedview
     id="base"
     pagecolor="#000000"
     bordercolor="#666666"
     borderopacity="1.0"
     inkscape:pageopacity="1"
     inkscape:pageshadow="2"
     inkscape:zoom="0.30961943"
     inkscape:cx="1567.254"
     inkscape:cy="46.12622"
     inkscape:document-units="px"
     inkscape:current-layer="layer1"
     showgrid="false"
     showguides="false"
     inkscape:window-width="1364"
     inkscape:window-height="721"
     inkscape:window-x="0"
     inkscape:window-y="22"
     inkscape:window-maximized="1" />
  <metadata
     id="metadata7">
    <rdf:RDF>
      <cc:Work
         rdf:about="">
        <dc:format>image/svg+xml</dc:format>
        <dc:type
           rdf:resource="http://purl.org/dc/dcmitype/StillImage" />
        <dc:title></dc:title>
      </cc:Work>
    </rdf:RDF>
  </metadata>
  <g
     inkscape:label="Capa 1"
     inkscape:groupmode="layer"
     id="layer1"
     transform="translate(0,-412.36218)">
    <path
       style="fill:#fffff9;fill-opacity:1"
       d="m 1282.1207,720.81961 c -16.7389,-5.7293 -36.8878,-26.4612 -44.278,-45.5593 -11.8272,-30.5645 -3.2471,-74.3019 18.2603,-93.0829 18.1823,-15.8774 26.3054,-19.0603 48.7543,-19.1039 18.5051,-0.036 22.7806,1.0215 35.3244,8.7361 24.0856,14.813 37.062,39.8067 37.0202,71.3043 -0.032,24.5815 -7.7976,44.0167 -24.3262,60.8856 -19.1969,19.5923 -44.8431,25.6889 -70.7551,16.8201 z m -82.2824,-194.0822 -25.6805,-28.657 13.5008,-13.1296 c 15.0554,-14.6415 43.2701,-31.1768 67.1975,-39.3813 12.1691,-4.1727 23.9366,-5.3849 51.317,-5.2861 31.8734,0.115 37.6926,0.9646 56.5805,8.2608 25.5529,9.8708 43.7221,21.1241 60.3017,37.3485 l 12.4796,12.2123 -25.6694,28.6446 -25.6695,28.6448 -9.8372,-8.6617 c -5.4105,-4.764 -16.7484,-12.2611 -25.1953,-16.6604 -13.8147,-7.1951 -18.2668,-7.9988 -44.3062,-7.9988 -26.0393,0 -30.4913,0.8037 -44.306,7.9988 -8.4469,4.3993 -19.7848,11.8964 -25.1953,16.6604 l -9.8372,8.6617 -25.6805,-28.657 z m -78.9181,-87.7348 -25.6535,-28.6268 15.3193,-14.6573 c 43.3781,-41.5036 95.2865,-68.5501 148.0125,-77.121 34.3213,-5.579 90.6026,-2.2424 122.4841,7.2616 43.8718,13.0784 87.1138,38.83 119.3274,71.0625 l 13.9691,13.9771 -26.0681,28.7573 -26.0682,28.7571 -12.9014,-12.4276 c -56.4909,-54.4158 -137.1029,-73.4642 -207.9951,-49.1487 -31.34,10.7494 -49.5299,21.5868 -78.7904,46.9429 l -15.9824,13.8497 -25.6533,-28.6268 z m -78.8418,-87.6494 -25.8321,-28.8261 20.3594,-19.3898 c 111.7072,-106.38674 259.5917,-139.18892 397.6755,-88.2081 49.4809,18.26843 94.1125,46.6111 137.2236,87.1417 l 21.9042,20.5931 -26.2182,29.1474 -26.2183,29.1473 -19.3709,-18.7597 c -42.6065,-41.2624 -97.2445,-70.5954 -155.4902,-83.4765 -30.4465,-6.7332 -96.168,-6.6122 -124.4136,0.2292 -60.893,14.7489 -117.1775,45.7338 -157.5023,86.7057 -7.8609,7.9871 -14.7409,14.522 -15.2888,14.522 -0.548,0 -12.6207,-12.9718 -26.8283,-28.8262 z"
       id="path3050-1"
       inkscape:connector-curvature="0" />
    <path
       style="fill:#fffff9;fill-opacity:1"
       d="m 1307.9636,1249.6076 c -16.7389,-5.7293 -36.8878,-26.4612 -44.278,-45.5593 -11.8272,-30.5645 -3.2471,-74.3019 18.2603,-93.0829 18.1823,-15.8774 26.3054,-19.0604 48.7543,-19.1039 18.5051,-0.036 22.7806,1.0214 35.3244,8.7361 24.0856,14.813 37.062,39.8066 37.0202,71.3043 -0.032,24.5815 -7.7977,44.0167 -24.3261,60.8856 -19.197,19.5923 -44.8432,25.6889 -70.7551,16.8201 z m -82.2824,-194.0823 -25.6805,-28.657 13.5008,-13.1296 c 15.0554,-14.64149 43.2701,-31.17669 67.1975,-39.38119 12.1691,-4.1727 23.9366,-5.3849 51.317,-5.2861 31.8734,0.1149 37.6926,0.9645 56.5805,8.2608 25.5528,9.8707 43.722,21.124 60.3017,37.34849 l 12.4796,12.2122 -25.6695,28.6447 -25.6694,28.6447 -9.8373,-8.6617 c -5.4104,-4.7639 -16.7483,-12.2611 -25.1952,-16.6604 -13.8147,-7.195 -18.2668,-7.9987 -44.3062,-7.9987 -26.0393,0 -30.4913,0.8037 -44.306,7.9987 -8.4469,4.3993 -19.7848,11.8965 -25.1953,16.6604 l -9.8372,8.6617 -25.6805,-28.657 z m -78.9181,-87.73469 -25.6535,-28.6268 15.3193,-14.6574 c 43.3781,-41.5035 95.2865,-68.55 148.0125,-77.1209 34.3213,-5.5791 90.6026,-2.2424 122.484,7.2616 43.8719,13.0783 87.1139,38.83 119.3275,71.0624 l 13.9691,13.9772 -26.0681,28.7572 -26.0682,28.7572 -12.9014,-12.4277 c -56.4909,-54.4157 -137.1029,-73.4641 -207.9951,-49.1486 -31.34,10.7494 -49.5299,21.5868 -78.7904,46.9428 l -15.9824,13.8498 z"
       id="path3050-0"
       inkscape:connector-curvature="0"
       sodipodi:nodetypes="csssscsccccssssscccssssscccccsssscccssscc" />
    <path
       style="fill:#fffff9;fill-opacity:1"
       d="m 1304.7104,1668.6487 c -16.7389,-5.7293 -36.8878,-26.4612 -44.278,-45.5593 -11.8272,-30.5645 -3.2471,-74.3019 18.2603,-93.0829 18.1823,-15.8774 26.3054,-19.0603 48.7543,-19.1039 18.5051,-0.036 22.7806,1.0215 35.3244,8.7361 24.0856,14.813 37.062,39.8067 37.0202,71.3043 -0.032,24.5815 -7.7976,44.0167 -24.3262,60.8856 -19.1969,19.5923 -44.8431,25.6889 -70.7551,16.8201 z m -82.2824,-194.0822 -25.6805,-28.657 13.5008,-13.1296 c 15.0554,-14.6415 43.2701,-31.1768 67.1975,-39.3813 12.1691,-4.1727 23.9366,-5.3849 51.317,-5.2861 31.8734,0.115 37.6926,0.9646 56.5805,8.2608 25.5529,9.8708 43.7221,21.1241 60.3017,37.3485 l 12.4796,12.2123 -25.6694,28.6446 -25.6695,28.6448 -9.8372,-8.6617 c -5.4105,-4.764 -16.7484,-12.2611 -25.1953,-16.6604 -13.8147,-7.1951 -18.2668,-7.9988 -44.3062,-7.9988 -26.0393,0 -30.4913,0.8037 -44.306,7.9988 -8.4469,4.3993 -19.7848,11.8964 -25.1953,16.6604 l -9.8372,8.6617 -25.6805,-28.657 z"
       id="path3050-6"
       inkscape:connector-curvature="0"
       sodipodi:nodetypes="csssscsccccssssscccsssssccc" />
    <rect
       style="fill:#ffffff;fill-rule:evenodd;stroke:#000000;stroke-width:0.73885858px;stroke-linecap:butt;stroke-linejoin:miter;stroke-opacity:1"
       id="rect2985"
       width="90.69487"
       height="74.342247"
       x="477.87573"
       y="916.78491" />
    <path
       sodipodi:type="arc"
       style="fill:#ffffff"
       id="path3013"
       sodipodi:cx="2344.814"
       sodipodi:cy="433.29462"
       sodipodi:rx="96.893143"
       sodipodi:ry="122.73131"
       d="m 2247.9208,433.29461 a 96.893143,122.73131 0 1 1 193.7564,3.05072"
       transform="matrix(0.4681444,0,0,0.62226177,-574.48863,648.87653)"
       sodipodi:start="3.1415927"
       sodipodi:end="6.3080447"
       sodipodi:open="true" />
    <path
       sodipodi:type="arc"
       style="fill:#000000"
       id="path3013-5"
       sodipodi:cx="2344.814"
       sodipodi:cy="433.29462"
       sodipodi:rx="96.893143"
       sodipodi:ry="122.73131"
       d="m 2247.9208,433.29461 a 96.893143,122.73131 0 1 1 193.7564,3.05072"
       transform="matrix(0.28461784,0,0,0.50533531,-144.15283,702.15113)"
       sodipodi:start="3.1415927"
       sodipodi:end="6.3080447"
       sodipodi:open="true" />
  </g>
</svg>
